<svg width="15" height="15" viewBox="0 0 15 15" fill="none" xmlns="http://www.w3.org/2000/svg">
<path d="M7.5 1.5C4.1865 1.5 1.5 4.1865 1.5 7.5C1.5 10.3115 3.436 12.664 6.046 13.315C6.018 13.234 6 13.14 6 13.0235V11.998C5.7565 11.998 5.3485 11.998 5.246 11.998C4.8355 11.998 4.4705 11.8215 4.2935 11.4935C4.097 11.129 4.063 10.5715 3.576 10.2305C3.4315 10.117 3.5415 9.9875 3.708 10.005C4.0155 10.092 4.2705 10.303 4.5105 10.616C4.7495 10.9295 4.862 11.0005 5.3085 11.0005C5.525 11.0005 5.849 10.988 6.154 10.94C6.318 10.5235 6.6015 10.14 6.948 9.959C4.95 9.7535 3.9965 8.7595 3.9965 7.41C3.9965 6.829 4.244 6.267 4.6645 5.7935C4.5265 5.3235 4.353 4.365 4.7175 4C5.6165 4 6.16 4.583 6.2905 4.7405C6.7385 4.587 7.2305 4.5 7.7475 4.5C8.2655 4.5 8.7595 4.587 9.2085 4.7415C9.3375 4.585 9.8815 4 10.7825 4C11.1485 4.3655 10.973 5.328 10.8335 5.797C11.2515 6.2695 11.4975 6.83 11.4975 7.41C11.4975 8.7585 10.5455 9.752 8.5505 9.9585C9.0995 10.245 9.5 11.05 9.5 11.6565V13.0235C9.5 13.0755 9.4885 13.113 9.4825 13.1575C11.8205 12.338 13.5 10.118 13.5 7.5C13.5 4.1865 10.8135 1.5 7.5 1.5Z" fill="black"/>
</svg>
