<svg width="20" height="22" viewBox="0 0 20 22" fill="none" xmlns="http://www.w3.org/2000/svg">
<path d="M18.1712 9.3176H17.5V9.28148H10V12.763H14.7096C14.0225 14.7896 12.1762 16.2444 10 16.2444C7.23875 16.2444 5 13.9062 5 11.0222C5 8.13825 7.23875 5.8 10 5.8C11.2746 5.8 12.4342 6.3022 13.3171 7.12253L15.6742 4.66069C14.1858 3.21195 12.195 2.31852 10 2.31852C5.39791 2.31852 1.66666 6.2156 1.66666 11.0222C1.66666 15.8288 5.39791 19.7259 10 19.7259C14.6021 19.7259 18.3333 15.8288 18.3333 11.0222C18.3333 10.4386 18.2758 9.86898 18.1712 9.3176Z" fill="#FFC107"/>
<path d="M2.6275 6.97108L5.36542 9.06824C6.10625 7.15256 7.90042 5.8 10 5.8C11.2746 5.8 12.4342 6.3022 13.3171 7.12253L15.6742 4.66069C14.1858 3.21195 12.195 2.31852 10 2.31852C6.79917 2.31852 4.02333 4.20592 2.6275 6.97108Z" fill="#FF3D00"/>
<path d="M10 19.7259C12.1525 19.7259 14.1083 18.8656 15.5871 17.4664L13.0079 15.1869C12.1712 15.8489 11.1312 16.2444 10 16.2444C7.8325 16.2444 5.99208 14.8009 5.29875 12.7865L2.58125 14.9733C3.96042 17.792 6.76125 19.7259 10 19.7259Z" fill="#4CAF50"/>
<path d="M18.1713 9.3176H17.5V9.28148H10V12.763H14.7096C14.3796 13.7365 13.78 14.5759 13.0067 15.1874L13.0079 15.1865L15.5871 17.466C15.4046 17.6392 18.3333 15.3741 18.3333 11.0222C18.3333 10.4386 18.2758 9.86898 18.1713 9.3176Z" fill="#1976D2"/>
</svg>
