<svg xmlns="http://www.w3.org/2000/svg"  viewBox="0 0 48 48" width="48px" height="48px"><linearGradient id="otru3p0QHPvDzBE2Plvi4a" x1="34.202" x2="9.949" y1="6.794" y2="47.698" gradientUnits="userSpaceOnUse"><stop offset="0" stop-color="#0176d0"/><stop offset="1" stop-color="#16538c"/></linearGradient><path fill="url(#otru3p0QHPvDzBE2Plvi4a)" d="M24,4C12.954,4,4,12.954,4,24c0,3.637,0.986,7.037,2.682,9.975L2.118,44.359	c-0.506,1.151,0.711,2.3,1.831,1.73l9.754-4.967C16.714,42.937,20.229,44,24,44c11.046,0,20-8.954,20-20C44,12.954,35.046,4,24,4z"/><radialGradient id="otru3p0QHPvDzBE2Plvi4b" cx="24" cy="24" r="3" gradientUnits="userSpaceOnUse"><stop offset="0"/><stop offset="1" stop-opacity="0"/></radialGradient><circle cx="24" cy="24" r="3" fill="url(#otru3p0QHPvDzBE2Plvi4b)" opacity=".3"/><circle cx="24" cy="24" r="2" fill="#fff"/><radialGradient id="otru3p0QHPvDzBE2Plvi4c" cx="16" cy="24" r="3" gradientUnits="userSpaceOnUse"><stop offset="0"/><stop offset="1" stop-opacity="0"/></radialGradient><circle cx="16" cy="24" r="3" fill="url(#otru3p0QHPvDzBE2Plvi4c)" opacity=".3"/><circle cx="16" cy="24" r="2" fill="#fff"/><radialGradient id="otru3p0QHPvDzBE2Plvi4d" cx="32" cy="24" r="3" gradientUnits="userSpaceOnUse"><stop offset="0"/><stop offset="1" stop-opacity="0"/></radialGradient><circle cx="32" cy="24" r="3" fill="url(#otru3p0QHPvDzBE2Plvi4d)" opacity=".3"/><circle cx="32" cy="24" r="2" fill="#fff"/></svg>