<svg width="19" height="20" viewBox="0 0 19 20" fill="none" xmlns="http://www.w3.org/2000/svg">
<g clip-path="url(#clip0_1_48)">
<path d="M13.2141 10.3954L2.77566 11.05C2.52713 11.05 2.40286 11.1809 2.40286 11.3118L0.911659 16.6793C0.663125 17.3339 0.783732 18.2417 1.40873 18.7667C1.9079 19.1583 2.77566 19.25 3.27273 19.0357L17.1906 11.7045C17.9362 11.3118 18.309 10.5263 18.1848 9.74081C18.0605 9.21715 17.6877 8.6935 17.1906 8.43167L3.27273 0.969542C2.6514 0.749989 1.90579 0.838627 1.40873 1.23137C0.787392 1.75503 0.663125 2.54052 0.911659 3.326L2.40286 8.6935C2.40286 8.82441 2.6514 8.95532 2.77566 8.95532L13.2141 9.6099C13.2141 9.6099 13.5869 9.6099 13.5869 10.0026C13.5869 10.3954 13.2141 10.3954 13.2141 10.3954Z" fill="#1877F2"/>
</g>
<defs>
<clipPath id="clip0_1_48">
<rect width="19" height="20" fill="white"/>
</clipPath>
</defs>
</svg>
